<svg xmlns="http://www.w3.org/2000/svg" width="23" height="19" viewBox="0 0 23 19"><path fill="#d1daed" d="M21.56 19H1.44C.64 19 0 18.35 0 17.54V1.46C0 .65.64 0 1.44 0h20.12c.8 0 1.44.65 1.44 1.46v16.08c0 .81-.64 1.46-1.44 1.46zm-.72-16.81H2.16v8.18l.7.33c1.1.53 2.05.99 4.08.99 2.04 0 2.99-.46 4.09-.99 1.17-.56 2.5-1.2 5.02-1.2a9.9 9.9 0 0 1 4.79 1.1zm0 10.82l-.7-.33a8.03 8.03 0 0 0-4.09-.99c-2.03 0-2.99.46-4.09.99a10.1 10.1 0 0 1-5.02 1.2 9.95 9.95 0 0 1-4.78-1.09v4.02h18.68zM7.91 6.58c0-.81-.65-1.47-1.44-1.47-.8 0-1.44.66-1.44 1.47 0 .8.64 1.46 1.44 1.46.79 0 1.44-.66 1.44-1.46z"/></svg>